PathFileType	4	(X/Y/Z)	 s01c0102.trc
DataRate	CameraRate	NumFrames	NumMarkers	Units	OrigDataRate	OrigDataStartFrame	OrigNumFrames
200	200	6	48	mm	200	1251	2000
Frame#	Time	racr			lacr			c7			jug			rlel			rdr			llel			ldr			s2			lic			ric			lasi			rasi			rpsi			lpsi			rgt			lgt			rth1			rth2			rth3			rth4			rlfc			rsh1			rsh2			rsh3			rsh4			rlmal			rmmal			rcal			rtoe			rmt5			lth1			lth2			lth4			lth3			llfc			lsh1			lsh2			lsh3			lsh4			llmal			lmmal			lcal			ltoe			lmt5			SBIKE			LBIKE			RBIKE			
		X1	Y1	Z1	X2	Y2	Z2	X3	Y3	Z3	X4	Y4	Z4	X5	Y5	Z5	X6	Y6	Z6	X7	Y7	Z7	X8	Y8	Z8	X9	Y9	Z9	X10	Y10	Z10	X11	Y11	Z11	X12	Y12	Z12	X13	Y13	Z13	X14	Y14	Z14	X15	Y15	Z15	X16	Y16	Z16	X17	Y17	Z17	X18	Y18	Z18	X19	Y19	Z19	X20	Y20	Z20	X21	Y21	Z21	X22	Y22	Z22	X23	Y23	Z23	X24	Y24	Z24	X25	Y25	Z25	X26	Y26	Z26	X27	Y27	Z27	X28	Y28	Z28	X29	Y29	Z29	X30	Y30	Z30	X31	Y31	Z31	X32	Y32	Z32	X33	Y33	Z33	X34	Y34	Z34	X35	Y35	Z35	X36	Y36	Z36	X37	Y37	Z37	X38	Y38	Z38	X39	Y39	Z39	X40	Y40	Z40	X41	Y41	Z41	X42	Y42	Z42	X43	Y43	Z43	X44	Y44	Z44	X45	Y45	Z45	X46	Y46	Z46	X47	Y47	Z47	X48	Y48	Z48	
1251	6.2550	524.059250	1330.701869	-117.752085	526.140748	1301.676369	-422.499384	480.089122	1396.072197	-267.182681	469.861122	1235.344860	-265.023798	585.868560	1070.801361	-7.409391	737.224839	859.146477	-58.040698	530.188245	1035.831192	-537.476587	718.114044	886.552309	-432.282100	-53.210900	1176.984095	-235.775724	104.543064	1202.906665	-422.555677	116.398901	1180.679066	-92.757385	111.577923	1151.040569	-394.149967	140.716234	1133.057551	-114.900194	-21.205284	1215.672406	-184.160871	-32.660112	1224.423233	-288.168586	54.786858	1058.338219	-63.252502	67.883598	1088.231069	-448.144514	117.254245	945.783905	-40.098959	161.414087	875.784689	-42.016556	204.458109	796.716533	-48.122942	210.398347	903.003652	-49.261077	235.026865	686.554837	-72.740287	195.373635	577.882049	-43.757945	183.125487	494.167834	-49.225154	162.610249	408.116937	-61.303596	234.653121	485.977773	-79.609967	132.861236	294.215804	-83.998625	172.378235	299.177381	-158.266041	90.563018	299.771413	-138.675285	300.446661	127.604761	-137.439914	199.821529	159.359330	-63.422289	172.080437	1026.816260	-451.830604	260.903407	1023.845516	-455.666560	264.847737	1077.321187	-444.613241	345.344019	1011.088332	-446.077553	431.698238	968.262337	-443.694303	369.999860	891.201812	-447.551032	326.560473	815.178179	-444.032611	282.443968	742.702629	-428.097367	376.668309	789.179751	-419.402830	209.383036	604.959422	-407.235385	239.986302	616.537484	-326.973241	151.735492	596.746930	-363.219918	405.447621	488.804829	-371.087606	299.278231	504.562856	-436.558312	-224.433590	893.700247	-251.195029	-12.686445	84.959775	-455.781988	-21.556852	80.837802	-55.602361	
1252	6.2600	524.190401	1330.006827	-117.797903	525.886688	1301.204107	-422.894384	480.269795	1395.785921	-267.146417	469.497131	1235.138819	-264.917101	585.616588	1070.392447	-6.719419	737.250148	858.978475	-57.867298	528.326530	1035.188830	-537.499684	717.735437	887.063404	-432.530513	-53.736514	1179.540342	-235.285574	104.644874	1206.327441	-423.503766	115.606282	1181.978943	-92.078285	110.678344	1153.449334	-393.641145	139.766907	1134.144931	-114.333203	-21.566663	1217.882494	-183.463919	-33.034569	1227.050503	-287.413293	53.683319	1059.980696	-62.919792	66.774318	1091.115157	-447.129595	117.836604	947.165703	-40.546478	163.031545	877.892213	-42.821263	207.291324	799.369065	-49.711048	211.421134	905.784480	-50.103171	238.083207	689.781357	-73.666175	196.376407	581.744524	-44.755786	182.445178	498.369855	-50.382117	160.131298	412.899903	-62.361020	233.569532	489.207752	-81.050725	127.302368	299.814007	-84.636036	167.285301	303.196406	-158.997506	85.013625	306.255889	-139.234397	290.363982	128.329439	-137.597012	190.762490	163.425739	-63.936890	170.897809	1027.973869	-450.672431	259.610814	1023.997969	-453.778472	264.283525	1077.322336	-442.191558	344.121995	1010.716007	-444.656415	429.654596	967.326346	-440.208051	369.718064	887.636607	-444.704874	327.278832	810.696539	-442.180778	284.273845	737.686952	-427.402592	377.922542	785.375307	-417.832232	214.413720	598.452468	-406.913631	244.174415	610.523100	-326.848705	156.382884	587.557645	-363.851683	414.163980	489.343831	-371.156624	307.565910	500.714928	-437.518354	-224.459887	893.677285	-251.352075	-12.688975	84.950824	-455.802939	-21.577791	80.892720	-55.615064	
1253	6.2650	524.255336	1329.344913	-117.944651	525.534074	1300.524917	-423.529947	480.332716	1395.459855	-267.119929	469.099808	1234.651269	-264.688953	585.426794	1069.954386	-6.114700	737.204629	858.772464	-57.688545	526.874677	1034.446615	-537.422607	717.421979	887.371568	-432.646889	-54.106790	1181.913450	-234.718120	103.890698	1209.064582	-423.494464	115.026082	1183.218703	-91.290447	110.043685	1155.437742	-393.189621	137.852495	1135.672170	-114.799392	-21.980341	1220.039827	-182.823815	-33.270654	1229.469770	-286.640794	52.627247	1061.569695	-62.429065	65.515178	1093.954047	-446.018086	118.686256	948.542392	-40.919600	165.049682	880.012763	-43.728047	210.590361	802.200526	-51.281726	212.802933	908.614023	-51.065450	241.764359	693.223255	-74.807601	197.796146	585.900816	-45.808800	182.029186	502.854279	-51.596871	157.756844	417.848640	-63.665535	232.722728	492.570987	-82.731946	121.732686	305.755940	-85.351032	161.833688	307.790038	-160.031002	79.428084	312.841748	-140.348068	280.470998	129.915767	-137.741934	181.765595	168.012396	-64.544057	169.383996	1028.396242	-449.487138	257.992644	1023.185889	-451.914347	263.384873	1076.594136	-440.474592	342.142447	1008.591408	-441.369621	427.469872	965.385500	-436.642225	369.058068	882.839607	-442.323110	328.066316	805.407694	-440.638327	286.064425	731.308475	-426.778197	378.965794	780.373536	-416.333925	219.404863	591.192098	-406.540860	248.266671	603.676744	-326.707227	161.048746	577.577097	-364.466563	422.451141	489.087013	-371.432491	315.391953	496.278997	-438.092734	-224.458963	893.648093	-251.499766	-12.700610	84.947556	-455.825776	-21.635546	80.986125	-55.671859	
1254	6.2700	524.330751	1327.737470	-120.121321	525.352347	1299.935298	-423.780878	480.298787	1395.188464	-267.119807	468.778162	1233.818720	-264.438855	585.311597	1069.508876	-5.670082	737.152006	858.562246	-57.459507	525.736601	1033.603540	-537.365848	717.170286	887.602327	-432.597907	-54.438944	1184.200488	-234.115379	103.262776	1211.604885	-423.390590	114.264261	1184.429238	-90.664072	109.535433	1157.151969	-392.784809	136.975885	1136.918416	-114.195191	-22.364313	1222.082259	-182.112074	-33.454931	1231.755487	-285.968276	51.709831	1062.997639	-61.926471	64.225719	1096.520186	-444.922809	119.829584	949.804873	-41.332150	167.286970	882.163524	-44.785062	214.171659	805.260767	-52.646553	214.460214	911.701890	-52.165942	245.522440	696.811271	-76.195276	199.654690	590.127516	-46.950160	181.822388	507.543538	-52.858769	155.488386	423.150521	-64.898851	231.954011	496.153671	-84.582997	116.081560	312.160365	-86.309335	156.116857	312.728853	-161.534123	73.722255	319.822667	-141.686363	270.725113	132.286854	-137.787610	172.903743	173.203881	-65.051927	167.734969	1028.099642	-448.303641	256.203175	1021.462189	-449.850176	262.339749	1074.934142	-439.028684	339.976377	1005.729322	-438.800016	425.153645	962.433852	-433.096083	368.235084	876.873727	-440.422357	328.573472	798.971359	-439.356741	287.784768	723.901456	-426.212686	379.805609	774.467999	-414.952948	224.358744	583.222772	-406.112442	252.289864	596.046962	-326.534816	165.760921	566.889513	-365.019508	430.398660	488.180562	-371.587357	323.252226	490.781637	-438.540801	-224.433609	893.613073	-251.618633	-12.671127	84.918183	-455.854610	-21.568526	80.935396	-55.674030	
1255	6.2750	524.359599	1327.112619	-120.238485	525.175076	1299.333573	-423.942085	480.163801	1394.959558	-267.061569	468.474706	1233.166294	-264.319418	585.235331	1069.037452	-5.277577	737.108968	858.351847	-57.258840	524.989329	1032.625824	-537.204849	716.966687	887.829680	-432.461837	-54.838734	1186.415708	-233.463174	103.001804	1213.838815	-423.304411	113.561199	1185.599723	-90.142690	109.169881	1158.465289	-392.403244	135.951539	1138.446871	-112.567499	-22.692805	1224.015336	-181.409872	-33.587876	1233.885627	-285.296407	50.876420	1064.243631	-61.347656	62.915142	1098.720965	-443.841462	121.135718	951.131515	-41.736886	169.776300	884.450176	-45.908576	217.956210	808.462929	-54.033411	216.271205	914.701377	-53.531791	249.950145	700.486560	-77.621600	201.698887	594.546097	-48.152573	181.784933	512.391488	-54.125292	153.259810	428.720633	-66.115137	231.240259	499.988904	-86.483085	110.145229	318.765713	-87.945811	150.459112	318.054196	-163.062990	68.005916	326.961302	-143.083357	261.276286	135.484699	-137.750300	164.250592	178.894414	-65.694223	165.753086	1027.278322	-447.034808	254.191228	1019.547134	-448.774021	261.123594	1072.569483	-437.545696	337.600013	1002.115809	-436.789521	422.715490	958.465452	-429.668880	367.204077	869.954581	-439.100158	328.823971	791.125596	-438.037157	289.526076	715.497459	-425.482053	380.540522	767.452245	-413.488871	229.269233	574.597789	-405.628623	256.263847	587.695063	-326.320694	170.533578	555.591229	-365.474033	437.961817	486.405330	-371.714126	330.888577	484.625128	-438.974826	-224.379498	893.574387	-251.701486	-12.659558	84.877380	-455.882365	-21.554746	80.948162	-55.717723	
1256	6.2800	524.297139	1326.616549	-120.294867	525.014624	1298.934551	-424.029658	479.973142	1394.732355	-266.941322	468.098497	1232.512438	-264.110313	585.237820	1068.633412	-4.943154	737.105516	858.135465	-57.117757	524.524572	1031.801439	-536.998402	716.858363	888.040675	-432.325086	-55.162525	1188.481272	-232.809721	102.845929	1215.757288	-423.085036	112.780530	1186.709406	-89.676768	108.777793	1159.304162	-391.919596	135.057264	1139.602731	-111.978568	-22.939722	1225.685372	-180.791159	-33.681234	1235.843869	-284.719257	50.201416	1065.391282	-60.789523	61.643333	1100.367616	-442.733817	122.696644	952.597711	-42.157860	172.604352	886.829405	-47.128108	221.973712	811.725287	-55.572209	218.288637	917.862590	-55.039304	254.574133	704.235755	-79.153306	203.925136	599.045459	-49.283718	181.816882	517.518198	-55.274467	150.958450	434.606957	-67.330765	230.488722	503.943154	-88.337446	104.278675	325.925756	-89.046872	144.911791	323.737123	-164.464445	62.297752	334.467160	-144.586639	252.188100	139.511805	-137.648788	155.682231	185.138295	-66.251220	163.789683	1025.970978	-445.774584	251.964987	1016.550869	-447.132046	259.807689	1069.548723	-436.196766	334.990292	997.752869	-434.997658	420.164985	953.474352	-426.459876	366.066299	861.926160	-437.952675	329.226132	782.547280	-436.871525	291.308318	706.084109	-424.650048	381.258296	759.793652	-412.263725	234.120380	565.378714	-405.095386	260.199740	578.693162	-326.058857	175.367232	543.789218	-365.805126	445.135229	483.818781	-371.929617	338.653369	477.475036	-439.195700	-224.303107	893.527468	-251.745823	-12.631053	84.924237	-455.831138	-21.504086	80.931008	-55.709371	
